<svg version="1" xmlns="http://www.w3.org/2000/svg" width="1365.333" height="1365.333" viewBox="0 0 1024.000000 1024.000000"><path d="M378 86.4c-73.4 42.5-171.3 99-217.5 125.7l-84 48.4-.3 251.6-.2 251.6 11.2 6.5c12.7 7.3 336.7 194.4 389.6 225 18.9 10.9 34.8 19.8 35.3 19.8.4 0 62.6-35.7 138.1-79.3 75.5-43.6 173.4-100.2 217.6-125.7l80.2-46.3-.2-126-.3-126-108.8-62.8L730 386.1l-8.3 4.8c-4.5 2.7-53.2 30.8-108.2 62.6-55 31.7-100.3 58-100.7 58.4-.4.3 48.1 28.7 107.7 63.1 79.9 46.1 108 62.8 107.2 63.6-2.5 2.4-215 124.5-216.1 124.2-.7-.2-49.7-28.4-108.9-62.7L295 637.7V386.5l55.8-32.2c30.6-17.6 121-69.8 200.7-115.8 79.8-46 152.5-88 161.7-93.4 9.3-5.3 16.8-9.8 16.8-10.1 0-.3-1.9-1.6-4.3-2.9-5.4-3-118.9-68.6-192.6-111.3-11.3-6.5-20.7-11.8-21-11.7-.3 0-60.7 34.8-134.1 77.3z"/></svg>