<svg preserveAspectRatio="xMidYMin meet" viewBox="0 0 24 24" fill="none" xmlns="http://www.w3.org/2000/svg">
<path d="M12.6877 3C7.04339 3 2.46784 7.22152 2.46784 12.4291C2.46784 13.8438 2.80617 15.1854 3.41122 16.3898L2.08625 19.6685C1.95189 19.9113 1.97619 20.2109 2.14782 20.4291C2.28058 20.5978 2.48182 20.6924 2.68997 20.6924C2.75073 20.6924 2.81205 20.6843 2.87252 20.6676L7.07211 20.3076C8.6837 21.2874 10.6133 21.8581 12.6877 21.8581C18.332 21.8581 22.9076 17.6366 22.9076 12.4291C22.9076 7.22152 18.332 3 12.6877 3ZM11.7337 8.64777C11.7337 8.1409 12.146 7.72854 12.653 7.72854C13.1599 7.72854 13.5722 8.1409 13.5722 8.64777V13.6663C13.5722 14.1732 13.1598 14.5855 12.653 14.5855C12.1461 14.5855 11.7337 14.1732 11.7337 13.6663V8.64777ZM12.6529 17.1296C12.0952 17.1296 11.6414 16.6758 11.6414 16.1181C11.6414 15.5603 12.0953 15.1065 12.6529 15.1065C13.2108 15.1065 13.6644 15.5603 13.6644 16.1181C13.6645 16.6759 13.2108 17.1296 12.6529 17.1296Z" fill="currentColor"/>
</svg>
