<svg preserveAspectRatio="xMidYMin meet" viewBox="0 0 16 16" fill="none" xmlns="http://www.w3.org/2000/svg">
<path fill-rule="evenodd" clip-rule="evenodd" d="M14.7629 5.36169V2.3418H12.185V3.44276H10.743V2.3418H5.06322V3.44276H3.62127V3.36276V2.3418H1.00037V5.36169H14.7629Z" fill="currentColor"/>
<path fill-rule="evenodd" clip-rule="evenodd" d="M3.62195 3.44291H5.0639V1H3.62195V3.44291Z" fill="currentColor"/>
<path fill-rule="evenodd" clip-rule="evenodd" d="M3.62195 3.44291H5.0639V1H3.62195V3.44291Z" fill="currentColor"/>
<path fill-rule="evenodd" clip-rule="evenodd" d="M10.7427 3.44291H12.1846V1H10.7427V3.44291Z" fill="currentColor"/>
<path fill-rule="evenodd" clip-rule="evenodd" d="M10.7427 3.44291H12.1846V1H10.7427V3.44291Z" fill="currentColor"/>
<path fill-rule="evenodd" clip-rule="evenodd" d="M10.3107 9.77126L9.2747 10.7812C9.23671 10.8182 9.21871 10.8722 9.22771 10.9242L9.4727 12.3502C9.4957 12.4832 9.3567 12.5842 9.23771 12.5212L7.95675 11.8482C7.90975 11.8232 7.85275 11.8232 7.80576 11.8482L6.5258 12.5212C6.40681 12.5842 6.26781 12.4832 6.28981 12.3502L6.5348 10.9242C6.5438 10.8722 6.5268 10.8182 6.4878 10.7812L5.45184 9.77126C5.35584 9.67727 5.40884 9.51427 5.54184 9.49527L6.97379 9.28628C7.02678 9.27928 7.07178 9.24628 7.09578 9.19829L7.73576 7.90033C7.79576 7.78034 7.96775 7.78034 8.02675 7.90033L8.66673 9.19829C8.69072 9.24628 8.73672 9.27928 8.78872 9.28628L10.2207 9.49527C10.3537 9.51427 10.4067 9.67727 10.3107 9.77126ZM14.7625 14.2251H11.9056C11.7236 14.2251 11.5766 14.0781 11.5766 13.8971C11.5766 13.7161 11.7236 13.5691 11.9056 13.5691H14.7625V6.38239H1V15.0001H14.7625V14.2251Z" fill="currentColor"/>
</svg>
