<svg preserveAspectRatio="xMidYMin meet" viewBox="0 0 24 24" fill="none" xmlns="http://www.w3.org/2000/svg">
<path d="M17.6568 19.0711C18.0473 19.4616 18.6805 19.4616 19.071 19.0711C19.4615 18.6806 19.4615 18.0474 19.071 17.6569L13.4142 12L19.071 6.34315C19.4615 5.95263 19.4615 5.31947 19.071 4.92894C18.6805 4.53842 18.0473 4.53842 17.6568 4.92894L11.9999 10.5858L6.34309 4.92894C5.95257 4.53842 5.3194 4.53842 4.92888 4.92894C4.53835 5.31947 4.53836 5.95263 4.92888 6.34315L10.5857 12L4.92888 17.6569C4.53836 18.0474 4.53836 18.6806 4.92888 19.0711C5.3194 19.4616 5.95257 19.4616 6.34309 19.0711L11.9999 13.4142L17.6568 19.0711Z" fill="currentColor"/>
</svg>
