<svg preserveAspectRatio="xMidYMin meet" viewBox="0 0 16 16" fill="none" xmlns="http://www.w3.org/2000/svg">
<path d="M11.5355 12.9498C11.926 13.3403 12.5592 13.3403 12.9497 12.9498C13.3402 12.5592 13.3402 11.9261 12.9497 11.5356L9.41418 8.00003L12.9497 4.46449C13.3402 4.07397 13.3402 3.4408 12.9497 3.05028C12.5592 2.65975 11.926 2.65975 11.5355 3.05028L7.99996 6.58581L4.46443 3.05028C4.07391 2.65975 3.44074 2.65975 3.05022 3.05028C2.65969 3.4408 2.65969 4.07397 3.05022 4.46449L6.58575 8.00003L3.05022 11.5356C2.65969 11.9261 2.65969 12.5592 3.05022 12.9498C3.44074 13.3403 4.07391 13.3403 4.46443 12.9498L7.99996 9.41424L11.5355 12.9498Z" fill="currentColor"/>
</svg>
