<svg preserveAspectRatio="xMidYMin meet" viewBox="0 0 16 16" fill="none" xmlns="http://www.w3.org/2000/svg">
<path fill-rule="evenodd" clip-rule="evenodd" d="M8.85822 1.49549C8.47679 0.834836 7.52321 0.834835 7.14178 1.49549L1.13425 11.9009C0.752815 12.5615 1.2296 13.3873 1.99246 13.3873H14.0075C14.7704 13.3873 15.2472 12.5615 14.8658 11.9009L8.85822 1.49549ZM7.51999 8.708H8.49599L8.69999 4.8H7.31599L7.51999 8.708ZM7.35199 9.76C7.31732 9.84533 7.29999 9.95067 7.29999 10.076C7.29999 10.196 7.31732 10.2987 7.35199 10.384C7.38932 10.4693 7.43999 10.54 7.50399 10.596C7.56799 10.652 7.64265 10.692 7.72799 10.716C7.81332 10.7427 7.90532 10.756 8.00399 10.756C8.09732 10.756 8.18532 10.7427 8.26799 10.716C8.35332 10.692 8.42799 10.652 8.49199 10.596C8.55599 10.54 8.60665 10.4693 8.64399 10.384C8.68132 10.2987 8.69999 10.196 8.69999 10.076C8.69999 9.95067 8.68132 9.84533 8.64399 9.76C8.60665 9.672 8.55599 9.60133 8.49199 9.548C8.42799 9.49467 8.35332 9.456 8.26799 9.432C8.18532 9.408 8.09732 9.396 8.00399 9.396C7.90532 9.396 7.81332 9.408 7.72799 9.432C7.64265 9.456 7.56799 9.49467 7.50399 9.548C7.43999 9.60133 7.38932 9.672 7.35199 9.76Z" fill="currentColor"/>
</svg>
