<svg preserveAspectRatio="xMidYMin meet" viewBox="0 0 120 120" fill="none" xmlns="http://www.w3.org/2000/svg">
<path d="M108.619 42L6.09375 37.9875L78.7031 27.1875L81.9469 26.7094L105.816 23.1562L108.619 42Z" fill="#17A9EF"/>
<path d="M81.4687 34.6032C81.3879 34.6138 81.3065 34.62 81.225 34.622C80.8309 34.6211 80.4503 34.4786 80.1525 34.2205C79.8548 33.9623 79.6598 33.6057 79.6031 33.2157L78.7031 27.1876L81.9469 26.7095L82.8469 32.7376C82.9081 33.1672 82.7978 33.6037 82.54 33.9527C82.2821 34.3018 81.8974 34.5354 81.4687 34.6032Z" fill="#D0FBFE"/>
<path d="M107.503 61.0123C106.236 62.2787 105.374 63.8923 105.024 65.649C104.674 67.4057 104.854 69.2267 105.539 70.8815C106.225 72.5364 107.385 73.9508 108.875 74.9459C110.364 75.9409 112.115 76.4719 113.906 76.4717V96.8436H6.09375V76.4717C8.49437 76.4717 10.7967 75.5181 12.4942 73.8206C14.1917 72.1231 15.1453 69.8208 15.1453 67.4201C15.1453 65.0195 14.1917 62.7172 12.4942 61.0197C10.7967 59.3222 8.49437 58.3686 6.09375 58.3686V37.9967H113.906V58.3686C112.718 58.3672 111.54 58.5999 110.442 59.0535C109.343 59.5071 108.345 60.1727 107.503 61.0123Z" fill="#D0FBFE"/>
<path d="M107.503 61.0123C106.236 62.2787 105.374 63.8923 105.024 65.649C104.674 67.4057 104.854 69.2267 105.539 70.8815C106.225 72.5364 107.385 73.9508 108.875 74.9459C110.364 75.9409 112.115 76.4719 113.906 76.4717V96.8436H6.09375V76.4717C8.49437 76.4717 10.7967 75.5181 12.4942 73.8206C14.1917 72.1231 15.1453 69.8208 15.1453 67.4201C15.1453 65.0195 14.1917 62.7172 12.4942 61.0197C10.7967 59.3222 8.49437 58.3686 6.09375 58.3686V37.9967H113.906V58.3686C112.718 58.3672 111.54 58.5999 110.442 59.0535C109.343 59.5071 108.345 60.1727 107.503 61.0123Z" fill="#D0FBFE"/>
<path d="M87.9941 37.9967V44.0905C87.9941 44.5256 87.8213 44.9429 87.5136 45.2506C87.2059 45.5582 86.7886 45.7311 86.3535 45.7311C85.9184 45.7311 85.5011 45.5582 85.1934 45.2506C84.8857 44.9429 84.7129 44.5256 84.7129 44.0905V37.9967H87.9941Z" fill="#17A9EF"/>
<path d="M86.3535 69.9466C86.1379 69.9461 85.9244 69.9882 85.7251 70.0705C85.5258 70.1527 85.3448 70.2736 85.1923 70.426C85.0399 70.5784 84.919 70.7595 84.8368 70.9588C84.7545 71.1581 84.7124 71.3716 84.7129 71.5872V82.4153C84.7129 82.8505 84.8857 83.2678 85.1934 83.5754C85.5011 83.8831 85.9184 84.056 86.3535 84.056C86.7886 84.056 87.2059 83.8831 87.5136 83.5754C87.8213 83.2678 87.9941 82.8505 87.9941 82.4153V71.5872C87.9936 71.1522 87.8206 70.7352 87.5131 70.4277C87.2055 70.1201 86.7885 69.9471 86.3535 69.9466ZM86.3535 50.7841C86.1379 50.7836 85.9244 50.8257 85.7251 50.9079C85.5258 50.9902 85.3448 51.111 85.1923 51.2635C85.0399 51.4159 84.919 51.597 84.8368 51.7963C84.7545 51.9955 84.7124 52.2091 84.7129 52.4247V63.2528C84.7129 63.6879 84.8857 64.1052 85.1934 64.4129C85.5011 64.7206 85.9184 64.8934 86.3535 64.8934C86.7886 64.8934 87.2059 64.7206 87.5136 64.4129C87.8213 64.1052 87.9941 63.6879 87.9941 63.2528V52.4247C87.9936 51.9897 87.8206 51.5727 87.5131 51.2651C87.2055 50.9576 86.7885 50.7846 86.3535 50.7841Z" fill="#17A9EF"/>
<path d="M87.9941 90.7498V96.8435H84.7129V90.7498C84.7129 90.3146 84.8857 89.8973 85.1934 89.5897C85.5011 89.282 85.9184 89.1091 86.3535 89.1091C86.7886 89.1091 87.2059 89.282 87.5136 89.5897C87.8213 89.8973 87.9941 90.3146 87.9941 90.7498Z" fill="#17A9EF"/>
<path d="M45.9434 53.4562H25.5762C25.1411 53.4562 24.7238 53.2833 24.4161 52.9757C24.1084 52.668 23.9355 52.2507 23.9355 51.8156C23.9355 51.3804 24.1084 50.9631 24.4161 50.6555C24.7238 50.3478 25.1411 50.1749 25.5762 50.1749H45.9434C46.3785 50.1749 46.7958 50.3478 47.1035 50.6555C47.4111 50.9631 47.584 51.3804 47.584 51.8156C47.584 52.2507 47.4111 52.668 47.1035 52.9757C46.7958 53.2833 46.3785 53.4562 45.9434 53.4562Z" fill="#17A9EF"/>
<path d="M66.3096 63.8586H25.5762C25.1411 63.8586 24.7238 63.6858 24.4161 63.3781C24.1084 63.0704 23.9355 62.6531 23.9355 62.218C23.9355 61.7829 24.1084 61.3656 24.4161 61.0579C24.7238 60.7502 25.1411 60.5774 25.5762 60.5774H66.3096C66.7447 60.5774 67.162 60.7502 67.4697 61.0579C67.7774 61.3656 67.9502 61.7829 67.9502 62.218C67.9502 62.6531 67.7774 63.0704 67.4697 63.3781C67.162 63.6858 66.7447 63.8586 66.3096 63.8586Z" fill="#17A9EF"/>
<path d="M66.3096 74.2628H25.5762C25.1411 74.2628 24.7238 74.09 24.4161 73.7823C24.1084 73.4746 23.9355 73.0573 23.9355 72.6222C23.9355 72.1871 24.1084 71.7698 24.4161 71.4621C24.7238 71.1544 25.1411 70.9816 25.5762 70.9816H66.3096C66.7447 70.9816 67.162 71.1544 67.4697 71.4621C67.7774 71.7698 67.9502 72.1871 67.9502 72.6222C67.9502 73.0573 67.7774 73.4746 67.4697 73.7823C67.162 74.09 66.7447 74.2628 66.3096 74.2628Z" fill="#17A9EF"/>
<path d="M66.3096 84.6664H25.5762C25.1411 84.6664 24.7238 84.4935 24.4161 84.1859C24.1084 83.8782 23.9355 83.4609 23.9355 83.0258C23.9355 82.5906 24.1084 82.1733 24.4161 81.8657C24.7238 81.558 25.1411 81.3851 25.5762 81.3851H66.3096C66.7447 81.3851 67.162 81.558 67.4697 81.8657C67.7774 82.1733 67.9502 82.5906 67.9502 83.0258C67.9502 83.4609 67.7774 83.8782 67.4697 84.1859C67.162 84.4935 66.7447 84.6664 66.3096 84.6664Z" fill="#17A9EF"/>
</svg>
