<svg preserveAspectRatio="xMidYMin meet" viewBox="0 0 120 120" fill="none" xmlns="http://www.w3.org/2000/svg">
<path d="M26.2579 56.7334C24.1733 58.818 24.1733 62.2106 26.2579 64.3156C28.3425 66.4002 31.7351 66.4002 33.8402 64.3156C48.269 49.8868 71.7515 49.8868 86.1803 64.3156C87.2226 65.3579 88.5919 65.8893 89.9612 65.8893C91.3305 65.8893 92.6998 65.3579 93.7421 64.3156C95.8267 62.231 95.8267 58.8384 93.7421 56.7334C75.1441 38.1149 44.8559 38.1149 26.2579 56.7334Z" fill="#DEDEDE"/>
<path d="M40.7276 71.2029C38.643 73.2875 38.643 76.6801 40.7276 78.7851C42.8122 80.8698 46.2048 80.8698 48.3098 78.7851C54.7476 72.3269 65.2524 72.3269 71.6902 78.7851C72.7325 79.8274 74.1018 80.3588 75.4711 80.3588C76.8404 80.3588 78.2097 79.8274 79.252 78.7851C81.3366 76.7005 81.3366 73.3079 79.252 71.2233C68.645 60.5755 51.355 60.5755 40.7276 71.2029Z" fill="#72DFFA"/>
<path d="M60 97.5875C63.9392 97.5875 67.1326 94.3942 67.1326 90.4549C67.1326 86.5157 63.9392 83.3223 60 83.3223C56.0608 83.3223 52.8674 86.5157 52.8674 90.4549C52.8674 94.3942 56.0608 97.5875 60 97.5875Z" fill="#1084CD"/>
<path d="M108.437 42.0184C81.7249 15.3272 38.2751 15.3272 11.5635 42.0184C9.47885 44.103 9.47885 47.4956 11.5635 49.6007C13.6481 51.6853 17.0407 51.6853 19.1457 49.6007C41.6677 27.0582 78.3323 27.0582 100.875 49.6007C101.917 50.643 103.286 51.1743 104.656 51.1743C106.025 51.1743 107.394 50.643 108.437 49.6007C110.521 47.516 110.521 44.1234 108.437 42.0184Z" fill="#F0F0F0"/>
</svg>
