<svg preserveAspectRatio="xMidYMin meet" viewBox="0 0 120 120" fill="none" xmlns="http://www.w3.org/2000/svg">
<path d="M88.8731 38.1096V48.4344H16V38.1096C16 34.1833 19.1833 31 23.1096 31H81.7635C85.6897 31 88.8731 34.1833 88.8731 38.1096Z" fill="#72DFFA"/>
<path d="M48.1194 37.1321C49.6066 37.137 50.8077 38.3464 50.8029 39.8336C50.798 41.3208 49.5885 42.5226 48.1014 42.5177C46.6142 42.5129 45.4131 41.3034 45.4179 39.8162C45.4235 38.3291 46.6322 37.1279 48.1194 37.1321Z" fill="#F0F0F0"/>
<path d="M88.8731 48.4343V87.8903C88.8731 91.8173 85.6897 94.9999 81.7635 94.9999H23.1096C19.1833 94.9999 16 91.8173 16 87.8903V48.4343H88.8731Z" fill="#F5F5F5"/>
<path d="M36.022 37.0945C37.5092 37.0994 38.711 38.3088 38.7062 39.796C38.7013 41.2832 37.4919 42.485 36.0047 42.4801C34.5175 42.4753 33.3157 41.2658 33.3205 39.7786C33.3226 39.0642 33.6087 38.3796 34.1148 37.8763C34.6217 37.3729 35.3083 37.0917 36.022 37.0945Z" fill="#F0F0F0"/>
<path d="M23.9254 37.0557C25.4132 37.0599 26.6157 38.2693 26.6109 39.7572C26.6067 41.2451 25.3973 42.4476 23.9094 42.4427C22.4215 42.4385 21.219 41.2291 21.2239 39.7412C21.2253 39.0268 21.5113 38.3422 22.0181 37.8382C22.525 37.3348 23.2109 37.0529 23.9254 37.0557Z" fill="#F0F0F0"/>
<path d="M102.931 41.7123L83.7874 26.5293C83.4296 26.2456 82.9995 26.0677 82.5457 26.0158C82.092 25.964 81.6328 26.0402 81.2202 26.236C80.8042 26.4341 80.4526 26.7458 80.206 27.1351C79.9595 27.5245 79.8279 27.9755 79.8266 28.4364V35.7711C53.446 37.5559 51.001 67.0661 51.001 67.3839C50.9848 67.9424 51.1603 68.4897 51.4984 68.9345C51.8365 69.3794 52.3167 69.695 52.8592 69.8289C53.0468 69.9102 53.244 69.9677 53.446 70C53.9163 69.999 54.3763 69.8624 54.7709 69.6066C55.1656 69.3507 55.478 68.9865 55.6708 68.5575C55.9153 68.0196 61.3919 56.3329 79.8266 55.4038V62.7386C79.8279 63.1994 79.9595 63.6505 80.206 64.0398C80.4526 64.4292 80.8042 64.7409 81.2202 64.939C81.6328 65.1348 82.092 65.211 82.5457 65.1592C82.9995 65.1073 83.4296 64.9294 83.7874 64.6456L102.931 49.4627C103.511 49.005 103.98 48.4218 104.302 47.757C104.624 47.0922 104.792 46.363 104.792 45.6242C104.792 44.8853 104.624 44.1561 104.302 43.4913C103.98 42.8265 103.511 42.2433 102.931 41.7856V41.7123Z" fill="#17A9EF"/>
</svg>
