<svg width="120" height="120" viewBox="0 0 120 120" fill="none" xmlns="http://www.w3.org/2000/svg">
<circle cx="60" cy="61" r="55" fill="#E7FBFF"/>
<path d="M38.7174 67.8198C38.7174 67.8198 38.7174 58.3892 43.9658 58.7697C49.2141 58.3892 49.2141 67.8198 49.2141 67.8198H55.7795C56.0255 65.8419 56.3683 64.4166 56.8209 62.7864L51.9236 56.5474C49.9649 54.5888 50.5629 51.3128 52.9847 50.1329C51.771 49.8607 50.5262 49.7212 49.2682 49.7212C38.3845 49.7212 37.424 49.5817 34.9616 50.1395C37.3842 51.3402 37.9549 54.6004 36.0079 56.5474L31.1106 62.7864C31.5632 64.4166 31.906 65.8419 32.152 67.8198H38.7174ZM47.1673 21.636C44.3366 18.8167 39.4407 20.7889 39.4407 24.8375V28.1997C36.7535 29.614 34.9173 32.2577 34.9173 35.326C34.9173 35.6081 34.9238 35.8902 34.9353 36.1707C43.9116 41.1845 44.0166 30.9797 52.988 34.7044C52.7602 31.9198 51.0125 29.5269 48.4908 28.1997V24.8375C48.4908 23.5861 47.984 22.4561 47.1673 21.636ZM75.6363 93.4351C75.6363 90.1844 73.7223 87.2371 70.752 85.9168L55.2776 81.3918C55.2776 78.7036 55.2989 76.4813 55.3481 74.6066H46.2275C44.9802 74.6066 43.9658 73.5957 43.9658 72.3433C43.9658 73.5955 42.9513 74.6066 41.704 74.6066H32.5834C32.6326 76.4813 32.6539 78.7036 32.6539 81.3918L17.1795 85.9168C15.7248 86.5623 14.4893 87.6171 13.6237 88.9527C10.096 94.3804 13.9693 101.662 20.522 101.662H25.8672V93.1792L37.179 96.0068C39.5006 94.458 40.2342 93.7434 41.973 93.7434C43.8395 93.7434 45.4976 94.939 46.0864 96.7087L46.2275 97.1368L62.0644 93.1792V101.662H67.4095C71.9513 101.662 75.6363 97.9816 75.6363 93.4351Z" fill="#A1F1FD"/>
<path d="M109.772 100.376H74.9703C79.9933 95.6365 78.4417 87.4451 72.3061 84.7176C72.1816 84.6622 73.1473 84.9514 57.6117 80.4084C57.6153 78.6998 57.6289 77.2155 57.6527 75.9185H67.1086C72.4686 75.9185 75.3305 69.7067 72.0581 65.6225L69.5635 62.503C69.3462 62.2313 69.0298 62.057 68.6839 62.0185C68.3381 61.98 67.9911 62.0805 67.7194 62.2978C67.5848 62.4054 67.4727 62.5385 67.3895 62.6894C67.3064 62.8404 67.2538 63.0062 67.2347 63.1775C67.2156 63.3487 67.2305 63.5221 67.2784 63.6876C67.3263 63.8531 67.4064 64.0076 67.514 64.1421L70.0095 67.2626C71.9259 69.6544 70.2476 73.2944 67.1086 73.2944C45.4711 73.2944 46.9749 73.412 46.5792 73.0197C46.179 72.6161 46.2989 73.3515 46.2989 60.3015C48.2714 61.3131 48.919 65.636 48.9231 67.8198C48.9231 68.1677 49.0613 68.5015 49.3074 68.7475C49.5534 68.9936 49.8872 69.1318 50.2351 69.1318H61.7946C62.886 69.1318 63.5023 67.8701 62.8266 67.0094L56.5156 58.9715C56.4098 58.8344 56.2779 58.7195 56.1275 58.6336C55.977 58.5477 55.8111 58.4925 55.6392 58.471C55.4673 58.4496 55.2929 58.4624 55.126 58.5087C54.959 58.555 54.8029 58.6339 54.6667 58.7408C54.5304 58.8478 54.4167 58.9807 54.332 59.1318C54.2474 59.2829 54.1935 59.4493 54.1735 59.6214C54.1534 59.7934 54.1677 59.9678 54.2154 60.1343C54.2631 60.3008 54.3433 60.4563 54.4514 60.5916L56.4028 63.0772C56.1008 64.2095 55.8573 65.2728 55.6611 66.5077H51.4905C51.1451 62.0402 49.4044 57.2102 44.9868 57.4564C40.5679 57.2109 38.8293 62.032 38.4833 66.5077H34.3126C34.1165 65.2728 33.8729 64.2097 33.571 63.0772L35.5224 60.5916C35.6288 60.4561 35.7074 60.3009 35.7538 60.135C35.8003 59.9691 35.8135 59.7956 35.7929 59.6245C35.7723 59.4535 35.7182 59.2882 35.6337 59.138C35.5491 58.9879 35.4359 58.8558 35.3003 58.7495C35.1648 58.643 35.0096 58.5644 34.8437 58.5179C34.6777 58.4715 34.5043 58.4582 34.3332 58.4789C34.1621 58.4995 33.9968 58.5536 33.8467 58.6381C33.6965 58.7227 33.5645 58.836 33.4581 58.9715L27.1472 67.0094C26.4732 67.8678 27.085 69.1318 28.1791 69.1318H39.7386C40.4622 69.1318 41.0494 68.5447 41.0507 67.8209C41.0548 65.6207 41.7064 61.311 43.6749 60.3015C43.6749 73.3348 43.7918 72.619 43.402 73.0123C42.9957 73.4153 44.5984 73.2944 22.8652 73.2944C19.7283 73.2944 18.0464 69.656 19.9651 67.2616L30.6053 53.9561C33.2838 52.0434 36.4361 51.0334 39.7304 51.0334C50.4021 51.0334 54.3021 50.3624 59.3132 53.8854L60.8089 55.7576C60.9164 55.8922 61.0494 56.0044 61.2003 56.0876C61.3512 56.1708 61.517 56.2235 61.6882 56.2426C61.8595 56.2618 62.0328 56.247 62.1983 56.1991C62.3639 56.1512 62.5183 56.0712 62.6529 55.9636C62.7875 55.856 62.8997 55.723 62.9829 55.5721C63.0661 55.4212 63.1188 55.2555 63.1379 55.0842C63.1571 54.913 63.1423 54.7396 63.0945 54.5741C63.0466 54.4085 62.9666 54.2541 62.8591 54.1194C61.1483 51.9783 61.1967 52.0065 60.99 51.8579C58.0934 49.7732 54.6505 48.5809 51.0851 48.4278C52.1716 47.2398 52.4606 46.2738 53.5574 43.7859C54.7094 41.1621 55.3477 38.2957 55.3477 35.3253C55.3477 32.2535 53.757 29.2897 50.8238 27.4424C50.8238 24.7387 51.1231 22.7232 49.114 20.7063C45.4641 17.0712 39.1495 19.6158 39.1495 24.8374V27.4424C36.4195 29.1617 34.6256 32.0216 34.6256 35.3253C34.6256 38.2335 35.228 41.0801 36.4167 43.7877C37.6014 46.475 37.8538 47.2974 38.8903 48.4297C35.142 48.5983 31.6742 49.9029 28.9101 51.9435C28.6966 52.1016 29.3818 51.2837 17.9161 65.6215C14.5749 69.7917 17.6055 75.9185 22.8648 75.9185H32.3207C32.3445 77.2155 32.358 78.6998 32.3617 80.4084C16.8027 84.9582 17.7923 84.6622 17.6682 84.7171C11.5163 87.4473 9.99588 95.6536 15.0099 100.376H4.31209C3.9641 100.376 3.63037 100.514 3.3843 100.76C3.13824 101.006 3 101.34 3 101.688C3 102.036 3.13824 102.37 3.3843 102.616C3.63037 102.862 3.9641 103 4.31209 103H109.772C110.12 103 110.454 102.862 110.7 102.616C110.946 102.37 111.084 102.036 111.084 101.688C111.084 101.34 110.946 101.006 110.7 100.76C110.454 100.514 110.12 100.376 109.772 100.376ZM58.471 65.7116L59.096 66.5077H58.3207C58.368 66.2356 58.418 65.9712 58.471 65.7116ZM31.5025 65.7116C31.5556 65.9712 31.6055 66.2357 31.6527 66.5077H30.8774L31.5025 65.7116ZM41.7738 24.8374C41.7738 21.9882 45.24 20.5516 47.2585 22.5619C48.3608 23.6687 48.1996 24.8013 48.1996 26.2546C46.1031 25.6307 43.8702 25.6307 41.7737 26.2546L41.7738 24.8374ZM39.47 30.4786C43.3874 26.9176 50.1082 28.1426 52.1731 32.759C48.6072 32.026 46.3583 33.4737 44.4902 34.6784C42.3279 36.0735 40.7305 37.1023 37.2506 35.3702C37.2504 33.4186 38.091 31.7321 39.47 30.4786ZM37.5008 38.3304C41.0061 39.6005 43.1779 38.6476 45.9125 36.8837C47.8445 35.6374 49.5338 34.5505 52.7197 35.6211C52.6497 39.8959 51.2022 42.6229 49.9899 45.3729C48.215 49.409 41.7568 49.4049 39.9832 45.3719C38.7688 42.6174 37.9547 41.0374 37.5008 38.3304ZM34.4407 96.4187C32.8379 97.2202 30.9445 97.8825 30.2767 100.35H28.2009V94.8588L34.4407 96.4187ZM33.125 100.35C33.5849 99.6671 33.6117 99.7671 38.7869 97.1795C38.8152 97.1653 38.8784 97.13 38.9223 97.101C41.3848 95.4594 41.7302 95.0559 42.9946 95.0559C43.6292 95.0551 44.2479 95.2545 44.7626 95.6257C45.2774 95.9969 45.662 96.521 45.8616 97.1234L46.0038 97.5512C46.1084 97.8649 46.3274 98.1277 46.6172 98.2869C46.9071 98.4461 47.2463 98.4901 47.5672 98.4101L61.7725 94.8588V100.35L33.125 100.35ZM14.6284 93.4348C14.6284 90.7085 16.2265 88.2639 18.6563 87.1503L33.8629 82.7036H48.1161C48.4641 82.7036 48.7978 82.5653 49.0439 82.3193C49.29 82.0732 49.4282 81.7395 49.4282 81.3915C49.4282 81.0435 49.29 80.7098 49.0439 80.4637C48.7978 80.2177 48.4641 80.0794 48.1161 80.0794H34.9851C34.9807 78.5118 34.9674 77.1359 34.9452 75.9185H42.7249C43.5543 75.9185 44.3429 75.6359 44.986 75.1115C45.6237 75.6347 46.4235 75.9199 47.2483 75.9185H55.0279C54.9954 77.7203 54.9867 79.5957 54.9867 81.3981C54.9879 81.6582 55.0664 81.9121 55.2122 82.1276C55.5935 82.6906 54.6218 82.2683 71.3166 87.1503C75.6782 89.1532 76.7298 94.9148 73.32 98.3246C72.0142 99.6305 70.2776 100.35 68.4304 100.35H64.3965V94.2029L65.6648 93.8859C65.832 93.8441 65.9892 93.7697 66.1277 93.6671C66.2661 93.5645 66.383 93.4357 66.4716 93.2879C66.5603 93.1402 66.6189 92.9764 66.6443 92.806C66.6696 92.6355 66.6611 92.4618 66.6193 92.2946C66.5776 92.1274 66.5033 91.9701 66.4008 91.8317C66.2982 91.6932 66.1694 91.5763 66.0216 91.4876C65.8738 91.399 65.7101 91.3403 65.5396 91.315C65.3692 91.2896 65.1954 91.2981 65.0283 91.3399L48.0592 95.5821C46.4991 92.4073 42.5304 91.5412 39.7512 93.3948L37.9548 94.5924L24.9447 91.3399C24.7775 91.2981 24.6037 91.2896 24.4333 91.315C24.2629 91.3404 24.0991 91.3991 23.9513 91.4877C23.6529 91.6667 23.4378 91.957 23.3534 92.2946C23.269 92.6322 23.3222 92.9895 23.5012 93.288C23.6803 93.5864 23.9705 93.8014 24.3081 93.8859L25.5764 94.2029V100.35H21.5429C17.7301 100.35 14.6284 97.2477 14.6284 93.4348Z" fill="#17A9EF"/>
<path d="M64.2941 60.6017C65.3813 60.6017 66.0101 59.3323 65.3164 58.4681L65.1095 58.2106C65.0021 58.0751 64.8688 57.9622 64.7176 57.8783C64.5663 57.7945 64.3999 57.7414 64.228 57.7221C64.0561 57.7028 63.8821 57.7176 63.716 57.7658C63.5499 57.814 63.3949 57.8945 63.2601 58.0028C63.1252 58.1111 63.0131 58.245 62.9301 58.3968C62.8472 58.5486 62.7951 58.7153 62.7768 58.8873C62.7585 59.0593 62.7744 59.2332 62.8236 59.399C62.8728 59.5648 62.9542 59.7193 63.0633 59.8535C63.3358 60.1929 63.6211 60.6017 64.2941 60.6017Z" fill="#17A9EF"/>
<path d="M109.613 50.4561C111.314 54.2274 111.227 59.2262 108.991 63.8745C107.406 67.1709 104.001 68.8234 101.385 67.5655C98.7697 66.3077 97.9344 62.6158 99.5196 59.3196C101.755 54.6713 105.605 51.4817 109.613 50.4561ZM83.9055 50.4561C82.2042 54.2274 82.292 59.2262 84.5274 63.8745C86.1125 67.1709 89.518 68.8234 92.1335 67.5655C94.749 66.3077 95.5843 62.6158 93.9991 59.3196C91.7638 54.6713 87.9138 51.4817 83.9055 50.4561Z" fill="#A1F1FD"/>
<path d="M96.7593 53.4263C93.7625 55.6823 91.7879 59.5332 91.7879 63.9055C91.7879 67.0059 94.0136 69.5194 96.7593 69.5194C99.5049 69.5194 101.731 67.0059 101.731 63.9055C101.731 59.5332 99.7561 55.6823 96.7593 53.4263Z" fill="#A1F1FD"/>
<path d="M101.583 101.293H91.9361C90.241 101.293 88.8668 99.9189 88.8668 98.2238V83.7542H104.652V98.2238C104.652 99.9189 103.278 101.293 101.583 101.293Z" fill="white"/>
<path d="M88.8668 83.7542H104.652V89.5342H88.8668V83.7542Z" fill="#99EBFA"/>
<path d="M90.2022 77.9094C86.8997 79.7288 82.6811 79.4436 79.6215 76.8724C76.6772 74.3981 75.6334 70.5022 76.6492 67.0337C78.0711 68.546 80.0554 69.5339 82.292 69.6521C86.7225 69.8864 90.1626 73.5328 90.2022 77.9094ZM103.316 77.9094C106.619 79.7288 110.838 79.4436 113.897 76.8724C116.841 74.3981 117.885 70.5022 116.869 67.0337C115.448 68.546 113.463 69.5339 111.227 69.6521C106.796 69.8864 103.356 73.5328 103.316 77.9094Z" fill="#A1F1FD"/>
<path fill-rule="evenodd" clip-rule="evenodd" d="M109.357 49.4552C109.843 49.3308 110.348 49.5738 110.555 50.0313C112.398 54.1163 112.272 59.4362 109.922 64.3225C108.192 67.9208 104.256 70.0931 100.937 68.4968C100.423 68.2495 100.207 67.6321 100.454 67.1178C100.701 66.6036 101.319 66.3872 101.833 66.6345C103.745 67.554 106.62 66.4214 108.06 63.4269L108.06 63.4269C110.015 59.3619 110.211 55.0697 109.008 51.715C106.067 52.7223 103.232 55.006 101.256 58.2781C100.961 58.7666 100.326 58.9234 99.8372 58.6284C99.3487 58.3334 99.1918 57.6982 99.4868 57.2097C101.898 53.2173 105.524 50.4362 109.357 49.4552Z" fill="#17A9EF"/>
<path fill-rule="evenodd" clip-rule="evenodd" d="M82.9637 50.0314C83.1701 49.5738 83.6754 49.3308 84.1617 49.4552C88.0081 50.4394 91.6453 53.2362 94.0565 57.2508C94.3503 57.74 94.1919 58.3747 93.7027 58.6686C93.2135 58.9624 92.5787 58.804 92.2849 58.3148C90.3079 55.0231 87.4625 52.726 84.5108 51.715C83.9555 53.2632 83.697 55.0134 83.7751 56.8553C83.7992 57.4254 83.3566 57.9072 82.7864 57.9314C82.2163 57.9555 81.7345 57.5129 81.7104 56.9427C81.6058 54.4738 82.0323 52.0959 82.9637 50.0314ZM104.478 60.2814C104.998 60.518 105.227 61.1307 104.99 61.6501C102.482 67.1556 100.182 74.0393 98.2888 81.7378L98.047 82.721H104.652C105.222 82.721 105.685 83.1836 105.685 83.7542V98.2238C105.685 98.2237 105.685 98.2238 105.685 98.2238C105.685 100.49 103.848 102.326 101.583 102.326H91.9361C89.6704 102.326 87.8335 100.49 87.8335 98.2238V83.7542C87.8335 83.1836 88.2961 82.721 88.8668 82.721H95.7261V62.8527C95.7261 62.2821 96.1887 61.8194 96.7593 61.8194C97.33 61.8194 97.7926 62.2821 97.7926 62.8527V75.5664C99.3795 70.0404 101.178 65.0339 103.11 60.7933C103.346 60.274 103.959 60.0448 104.478 60.2814ZM84.9941 64.8419C85.4291 64.4726 86.0812 64.5259 86.4505 64.9609C88.0206 66.8103 90.1442 67.3759 91.6857 66.6346C92.1999 66.3873 92.8173 66.6037 93.0647 67.1179C93.312 67.6322 93.0956 68.2496 92.5813 68.497C89.9275 69.7732 86.8397 68.6124 84.8751 66.2983C84.5058 65.8633 84.5591 65.2113 84.9941 64.8419ZM89.9001 84.7875V98.2238C89.9001 99.3483 90.8117 100.26 91.9361 100.26H101.583C102.707 100.26 103.619 99.3483 103.618 98.2239V84.7875H89.9001Z" fill="#17A9EF"/>
<path fill-rule="evenodd" clip-rule="evenodd" d="M96.1379 52.6008C96.5059 52.3238 97.0128 52.3238 97.3808 52.6008C100.651 55.0625 102.764 59.2264 102.764 63.9056C102.764 67.4551 100.19 70.5527 96.7593 70.5527C93.3285 70.5527 90.7546 67.455 90.7546 63.9056C90.7546 59.2264 92.8679 55.0625 96.1379 52.6008ZM96.7593 54.759C94.3816 56.8581 92.8211 60.1576 92.8211 63.9056C92.8211 66.5569 94.6987 68.4862 96.7593 68.4862C98.8198 68.4862 100.698 66.5569 100.698 63.9056C100.698 60.1576 99.1371 56.8581 96.7593 54.759ZM76.4088 66.0289C76.7692 65.9426 77.1481 66.056 77.402 66.326C78.6489 67.6522 80.3863 68.5168 82.3465 68.6204L82.3466 68.6204C87.3257 68.8837 91.1909 72.9813 91.2354 77.9001C91.2389 78.28 91.0335 78.6312 90.7008 78.8145C87.0368 80.833 82.3542 80.5186 78.9567 77.6635C75.6873 74.916 74.5308 70.5909 75.6576 66.7434C75.7617 66.3877 76.0484 66.1151 76.4088 66.0289ZM77.3323 68.9887C77.1179 71.5996 78.13 74.2694 80.2863 76.0814C82.8359 78.2241 86.2917 78.5842 89.1363 77.2893C88.7984 73.7404 85.9047 70.878 82.2375 70.684" fill="#17A9EF"/>
<path fill-rule="evenodd" clip-rule="evenodd" d="M117.11 66.0286C117.47 66.1149 117.757 66.3875 117.861 66.7431C118.988 70.5907 117.831 74.9158 114.562 77.6633C111.164 80.5184 106.482 80.8328 102.818 78.8143C102.485 78.6309 102.28 78.2798 102.283 77.8999C102.328 72.981 106.193 68.8835 111.172 68.6201L111.172 68.6201C113.132 68.5165 114.87 67.652 116.117 66.3258C116.371 66.0558 116.749 65.9424 117.11 66.0286ZM116.186 68.9884C114.791 69.9716 113.111 70.5871 111.281 70.6838C107.614 70.8778 104.72 73.7402 104.382 77.2891C107.227 78.584 110.683 78.2238 113.232 76.0812L113.897 76.8722L113.232 76.0812C115.389 74.2692 116.401 71.5994 116.186 68.9884ZM84.0004 74.4174C84.2354 73.8974 84.8474 73.6663 85.3675 73.9013C90.2086 76.0886 94.2288 79.2502 97.0727 83.1448C97.4093 83.6056 97.3085 84.2521 96.8476 84.5886C96.3867 84.9251 95.7403 84.8243 95.4038 84.3635C92.7939 80.7894 89.0703 77.842 84.5166 75.7845C83.9965 75.5495 83.7654 74.9375 84.0004 74.4174Z" fill="#17A9EF"/>
<path fill-rule="evenodd" clip-rule="evenodd" d="M89.0403 60.2812C89.5596 60.0446 90.1724 60.2738 90.409 60.7932C92.9834 66.4443 95.3209 73.4558 97.2366 81.2441L97.4019 81.9163C100.162 78.5826 103.83 75.8538 108.151 73.9012C108.671 73.6662 109.283 73.8973 109.518 74.4174C109.753 74.9374 109.522 75.5495 109.002 75.7844C104.448 77.8419 100.725 80.7893 98.1149 84.3634C97.8299 84.7537 97.3225 84.8858 96.8939 84.7126C96.3833 84.7733 95.8958 84.4451 95.7698 83.9331L95.2298 81.7377C93.3362 74.0391 91.0364 67.1554 88.5284 61.6499C88.2918 61.1306 88.521 60.5178 89.0403 60.2812ZM88.1345 89.5342C88.1345 88.9635 88.5971 88.5009 89.1678 88.5009H104.351C104.922 88.5009 105.384 88.9635 105.384 89.5342C105.384 90.1048 104.922 90.5674 104.351 90.5674H89.1678C88.5971 90.5674 88.1345 90.1048 88.1345 89.5342Z" fill="#17A9EF"/>
</svg>
