<svg preserveAspectRatio="xMidYMin meet" viewBox="0 0 120 120" fill="none" xmlns="http://www.w3.org/2000/svg">
<path d="M17 38.04H103V88.8C103 92.1137 100.314 94.8 97 94.8H23C19.6863 94.8 17 92.1137 17 88.8V38.04Z" fill="#F0F0F0"/>
<path d="M17 32C17 28.6863 19.6863 26 23 26H97C100.314 26 103 28.6863 103 32V34.6H17V32Z" fill="#F2F2F2"/>
<circle cx="23.02" cy="30.3" r="1.72" fill="#1084CD"/>
<circle cx="28.18" cy="30.3" r="1.72" fill="#72DFFA"/>
<circle cx="33.3401" cy="30.3" r="1.72" fill="#72DFFA"/>
<path fill-rule="evenodd" clip-rule="evenodd" d="M59.9999 82.76C69.0242 82.76 76.3399 75.4443 76.3399 66.42C76.3399 57.3956 69.0242 50.08 59.9999 50.08C50.9756 50.08 43.6599 57.3956 43.6599 66.42C43.6599 75.4443 50.9756 82.76 59.9999 82.76ZM58.097 62.7897C58.3044 61.5743 59.1217 60.9666 60.5489 60.9666C61.2321 60.9666 61.7627 61.1384 62.1409 61.4818C62.5312 61.8121 62.7264 62.2282 62.7264 62.7302C62.7264 63.2322 62.6105 63.6351 62.3787 63.939C62.147 64.2296 61.6956 64.5731 61.0247 64.9694C60.3538 65.3657 59.8902 65.7884 59.634 66.2376C59.3779 66.6735 59.2498 67.3076 59.2498 68.1399V69.0316H60.677V68.2588C60.677 67.6379 60.7929 67.1623 61.0247 66.8321C61.1467 66.6471 61.3113 66.482 61.5187 66.3367C61.7261 66.1914 61.9823 66.0262 62.2872 65.8413C62.9948 65.4186 63.5071 64.9826 63.8243 64.5335C64.1414 64.0711 64.3 63.4964 64.3 62.8095C64.3 61.898 63.9523 61.1252 63.257 60.4911C62.5739 59.857 61.6346 59.5399 60.4391 59.5399C59.2559 59.5399 58.3349 59.8371 57.6762 60.4316C57.0174 61.0261 56.6454 61.8121 56.56 62.7897H58.097ZM60.7685 70.5376C60.5611 70.313 60.2989 70.2007 59.9817 70.2007C59.6645 70.2007 59.4084 70.313 59.2132 70.5376C59.018 70.7622 58.9204 71.033 58.9204 71.35C58.9204 71.6539 59.018 71.9115 59.2132 72.1229C59.4084 72.3342 59.6645 72.4399 59.9817 72.4399C60.2989 72.4399 60.5611 72.3342 60.7685 72.1229C60.9759 71.9115 61.0796 71.6539 61.0796 71.35C61.0796 71.033 60.9759 70.7622 60.7685 70.5376Z" fill="#DEDEDE"/>
</svg>
