<svg preserveAspectRatio="xMidYMin meet" viewBox="0 0 120 120" fill="none" xmlns="http://www.w3.org/2000/svg">
<path d="M60 20C37.9428 20 20 37.9428 20 60C20 82.0572 37.9428 100 60 100C82.0572 100 100 82.0572 100 60C100 37.9428 82.0572 20 60 20ZM60 82.2222C57.5455 82.2222 55.5556 80.2323 55.5556 77.7778C55.5556 75.3227 57.5455 73.3333 60 73.3333C62.4545 73.3333 64.4444 75.3227 64.4444 77.7778C64.4444 80.2323 62.4545 82.2222 60 82.2222ZM64.4444 60C64.4444 62.4566 62.4566 64.4445 60 64.4445C57.5434 64.4445 55.5556 62.4566 55.5556 60V42.2222C55.5556 39.7656 57.5434 37.7778 60 37.7778C62.4566 37.7778 64.4444 39.7656 64.4444 42.2222V60Z" fill="#C2C2C2"/>
</svg>
