<svg preserveAspectRatio="xMidYMin meet" viewBox="0 0 120 120" fill="none" xmlns="http://www.w3.org/2000/svg">
<path d="M78.9237 57.8C67.2886 57.8 57.8237 67.2649 57.8237 78.9C57.8237 90.5352 67.2886 100 78.9237 100C90.5589 100 100.024 90.5352 100.024 78.9C100.024 67.2649 90.5589 57.8 78.9237 57.8ZM78.9237 90.6222C77.629 90.6222 76.5793 89.5726 76.5793 88.2778C76.5793 86.9827 77.629 85.9334 78.9237 85.9334C80.2185 85.9334 81.2682 86.9827 81.2682 88.2778C81.2682 89.5726 80.2185 90.6222 78.9237 90.6222ZM81.2682 78.9C81.2682 80.1959 80.2196 81.2445 78.9237 81.2445C77.6279 81.2445 76.5793 80.1959 76.5793 78.9V69.5223C76.5793 68.2264 77.6279 67.1778 78.9237 67.1778C80.2196 67.1778 81.2682 68.2264 81.2682 69.5223V78.9Z" fill="#1084CD"/>
<path d="M20 31.5423C20 40.8485 40.8369 43.2645 50.634 43.2645C60.6436 43.2645 81.2681 40.7717 81.2681 31.5423C81.2681 16.1513 20 16.1538 20 31.5423Z" fill="#F0F0F0"/>
<path d="M50.634 47.9534C35.4891 47.9534 20 43.921 20 36.2312V50.6104C20 58.3004 35.4891 62.489 50.634 62.489C53.5535 62.489 56.6332 62.3358 59.4552 62.0388C64.1873 56.5827 73.4956 53.1112 81.2681 53.1112V36.2312C81.2681 43.921 65.779 47.9534 50.634 47.9534Z" fill="#DEDEDE"/>
<path d="M56.063 67.0087C54.3184 67.1175 52.3977 67.1778 50.634 67.1778C35.4891 67.1778 20 63.1453 20 55.4556V69.5222C20 77.2122 35.4891 81.2444 50.634 81.2444C51.4548 81.2444 52.4322 81.2272 53.2515 81.2035C53.1837 80.4434 53.1348 79.6776 53.1348 78.9C53.1348 74.6106 54.2026 70.5708 56.063 67.0087Z" fill="#72DFFA"/>
<path d="M54.1162 85.8618C53.0101 85.9049 51.7442 85.9334 50.634 85.9334C35.4891 85.9334 20 81.901 20 74.2112V88.2778C20 95.9676 35.4891 100 50.634 100C54.7761 100 59.0769 99.6878 62.9292 99.0923C58.7318 95.7605 55.6043 91.1557 54.1162 85.8618Z" fill="#1084CD"/>
</svg>
