<svg preserveAspectRatio="xMidYMin meet" viewBox="0 0 16 16" fill="none" xmlns="http://www.w3.org/2000/svg">
<path d="M15.5 8C15.5 12.1421 12.1421 15.5 8 15.5C3.85786 15.5 0.5 12.1421 0.5 8C0.5 3.85786 3.85786 0.5 8 0.5C12.1421 0.5 15.5 3.85786 15.5 8Z" fill="#F0F0F0" stroke="#F0F0F0"/>
<path d="M1.65367 3.12939C1.02526 3.94699 0.551419 4.88933 0.275513 5.91305H4.43733L1.65367 3.12939Z" fill="#0052B4"/>
<path d="M15.7243 5.91303C15.4484 4.88934 14.9745 3.94699 14.3462 3.12939L11.5626 5.91303H15.7243Z" fill="#0052B4"/>
<path d="M0.275513 10.0869C0.55145 11.1106 1.02529 12.0529 1.65367 12.8705L4.43723 10.0869H0.275513Z" fill="#0052B4"/>
<path d="M12.8704 1.65358C12.0528 1.02517 11.1104 0.551328 10.0867 0.275391V4.43717L12.8704 1.65358Z" fill="#0052B4"/>
<path d="M3.12936 14.3461C3.94696 14.9745 4.8893 15.4483 5.91299 15.7242V11.5625L3.12936 14.3461Z" fill="#0052B4"/>
<path d="M5.91296 0.275391C4.88927 0.551328 3.94693 1.02517 3.12936 1.65355L5.91296 4.43714V0.275391Z" fill="#0052B4"/>
<path d="M10.0868 15.7242C11.1104 15.4483 12.0528 14.9745 12.8704 14.3461L10.0868 11.5625V15.7242Z" fill="#0052B4"/>
<path d="M11.5626 10.0869L14.3462 12.8705C14.9745 12.053 15.4484 11.1106 15.7243 10.0869H11.5626Z" fill="#0052B4"/>
<path d="M15.9323 6.95653H9.04353H9.0435V0.0677188C8.70191 0.02325 8.35366 0 8 0C7.64628 0 7.29809 0.02325 6.95653 0.0677188V6.95647V6.9565H0.0677188C0.02325 7.29809 0 7.64634 0 8C0 8.35372 0.02325 8.70191 0.0677188 9.04347H6.95647H6.9565V15.9323C7.29809 15.9768 7.64628 16 8 16C8.35366 16 8.70191 15.9768 9.04347 15.9323V9.04353V9.0435H15.9323C15.9768 8.70191 16 8.35372 16 8C16 7.64634 15.9768 7.29809 15.9323 6.95653Z" fill="#D80027"/>
<path d="M10.087 10.0869L13.6569 13.6568C13.8211 13.4927 13.9777 13.3211 14.1271 13.1432L11.0708 10.0869H10.087V10.0869Z" fill="#D80027"/>
<path d="M5.91304 10.0869H5.91298L2.34314 13.6568C2.50726 13.8209 2.67886 13.9776 2.85673 14.127L5.91304 11.0706V10.0869Z" fill="#D80027"/>
<path d="M5.91293 5.91324V5.91317L2.34305 2.34326C2.17887 2.50739 2.02224 2.67898 1.8728 2.85686L4.92915 5.91321H5.91293V5.91324Z" fill="#D80027"/>
<path d="M10.087 5.9132L13.6569 2.34327C13.4928 2.17908 13.3212 2.02245 13.1433 1.87305L10.087 4.92939V5.9132Z" fill="#D80027"/>
<circle cx="8" cy="8" r="7.5" stroke="#F0F0F0"/>
</svg>
