<svg preserveAspectRatio="xMidYMin meet" viewBox="0 0 16 16" fill="none" xmlns="http://www.w3.org/2000/svg">
<path d="M7.9997 1C4.13422 1 1 4.13422 1 7.9997C1 11.8652 4.13422 15 7.9997 15C11.8652 15 15 11.8652 15 7.9997C15 4.13422 11.8652 1 7.9997 1ZM9.45689 11.8486C9.09659 11.9908 8.80978 12.0987 8.59467 12.1733C8.38015 12.248 8.13067 12.2853 7.84681 12.2853C7.41067 12.2853 7.07111 12.1787 6.82933 11.9659C6.58756 11.7532 6.46726 11.4836 6.46726 11.1559C6.46726 11.0284 6.47615 10.8981 6.49393 10.7653C6.5123 10.6326 6.54133 10.4833 6.58104 10.3156L7.032 8.72267C7.0717 8.56978 7.10607 8.42459 7.13333 8.28948C7.16059 8.15318 7.17363 8.02815 7.17363 7.91437C7.17363 7.7117 7.13156 7.56948 7.048 7.48948C6.96326 7.40948 6.80385 7.37037 6.56622 7.37037C6.45007 7.37037 6.33037 7.38756 6.2077 7.4237C6.08622 7.46104 5.98074 7.49481 5.89422 7.528L6.01333 7.03733C6.30844 6.91704 6.59111 6.81393 6.86074 6.72859C7.13037 6.64207 7.38519 6.59941 7.62519 6.59941C8.05837 6.59941 8.39259 6.70489 8.62785 6.91348C8.86193 7.12267 8.97985 7.39467 8.97985 7.72889C8.97985 7.79822 8.97156 7.9203 8.95556 8.09452C8.93956 8.26933 8.90933 8.42874 8.86548 8.57511L8.41689 10.1633C8.38015 10.2907 8.34756 10.4364 8.31793 10.5994C8.28889 10.7624 8.27467 10.8868 8.27467 10.9704C8.27467 11.1813 8.32148 11.3253 8.4163 11.4018C8.50993 11.4782 8.67407 11.5167 8.90637 11.5167C9.016 11.5167 9.13867 11.4972 9.27733 11.4593C9.41481 11.4213 9.51437 11.3876 9.57719 11.3585L9.45689 11.8486ZM9.37748 5.40237C9.1683 5.59674 8.91644 5.69393 8.62193 5.69393C8.328 5.69393 8.07437 5.59674 7.86341 5.40237C7.65363 5.208 7.54756 4.97156 7.54756 4.69541C7.54756 4.41985 7.65422 4.18281 7.86341 3.98667C8.07437 3.78993 8.328 3.69215 8.62193 3.69215C8.91644 3.69215 9.16889 3.78993 9.37748 3.98667C9.58667 4.18281 9.69156 4.41985 9.69156 4.69541C9.69156 4.97215 9.58667 5.208 9.37748 5.40237Z" fill="currentColor"/>
</svg>
