<svg preserveAspectRatio="xMidYMin meet" viewBox="0 0 16 16" fill="none" xmlns="http://www.w3.org/2000/svg">
<path d="M8.154 1C5.31222 1 3 3.31222 3 6.15429C3 6.89561 3.15173 7.60341 3.45075 8.25819C4.7394 11.078 7.21009 14.0552 7.93679 14.9004C7.99124 14.9636 8.07062 15 8.15415 15C8.23768 15 8.31705 14.9636 8.3715 14.9004C9.09792 14.0554 11.5686 11.0783 12.8577 8.25819C13.1568 7.60341 13.3084 6.89561 13.3084 6.15429C13.3081 3.31222 10.9959 1 8.154 1ZM8.154 8.83144C6.67781 8.83144 5.47671 7.63034 5.47671 6.15415C5.47671 4.67781 6.67781 3.47671 8.154 3.47671C9.6302 3.47671 10.8313 4.67781 10.8313 6.15415C10.8314 7.63034 9.63034 8.83144 8.154 8.83144Z" fill="currentColor"/>
</svg>
