<svg preserveAspectRatio="xMidYMin meet" viewBox="0 0 16 16" fill="none" xmlns="http://www.w3.org/2000/svg">
<g clip-path="url(#clip0_5562_23890)">
<path d="M8.77247 0.480353L10.5771 4.13694C10.7026 4.39126 10.9452 4.56748 11.2259 4.6082L15.2613 5.1946C15.9682 5.2974 16.2502 6.16582 15.7389 6.66411L12.8189 9.51035C12.616 9.70826 12.5232 9.99362 12.5712 10.273L13.2604 14.292C13.3813 14.9959 12.6423 15.5326 12.0102 15.2005L8.401 13.3031C8.15002 13.1713 7.84998 13.1713 7.599 13.3031L3.9898 15.2005C3.35768 15.5329 2.61875 14.9959 2.73957 14.292L3.42877 10.273C3.47683 9.99362 3.38404 9.70826 3.18112 9.51035L0.261124 6.66411C-0.250184 6.16548 0.0318369 5.29706 0.738724 5.1946L4.77412 4.6082C5.05481 4.56748 5.29744 4.39126 5.42293 4.13694L7.22753 0.480353C7.54326 -0.160118 8.45641 -0.160118 8.77247 0.480353Z" fill="#CA3F4B"/>
<path fill-rule="evenodd" clip-rule="evenodd" d="M10.5996 8.37406L10.5871 9.8116L9.35148 10.5299L8.1021 11.2481L5.59961 9.8116V6.93766L6.84899 6.21945L8.09712 5.5L9.34412 6.21945L8.09712 6.93766L6.84649 7.65586V9.09352L8.09337 9.8116L9.34649 9.09352L8.11707 8.37406L9.35771 7.65586L10.5996 8.37406Z" fill="white"/>
</g>
<defs>
<clipPath id="clip0_5562_23890">
<rect width="16" height="16" fill="white"/>
</clipPath>
</defs>
</svg>
