<svg preserveAspectRatio="xMidYMin meet" viewBox="0 0 24 24" fill="none" xmlns="http://www.w3.org/2000/svg">
<path d="M13.1587 0.720529L15.8656 6.20541C16.0538 6.58689 16.4178 6.85122 16.8388 6.9123L22.8919 7.7919C23.9522 7.94609 24.3753 9.24873 23.6083 9.99617L19.2283 14.2655C18.9239 14.5624 18.7848 14.9904 18.8569 15.4095L19.8906 21.438C20.0719 22.4938 18.9635 23.2989 18.0153 22.8007L12.6015 19.9547C12.225 19.7569 11.775 19.7569 11.3985 19.9547L5.9847 22.8007C5.03651 23.2994 3.92812 22.4938 4.10935 21.438L5.14315 15.4095C5.21524 14.9904 5.07606 14.5624 4.77168 14.2655L0.391687 9.99617C-0.375275 9.24823 0.0477553 7.94559 1.10809 7.7919L7.16118 6.9123C7.58221 6.85122 7.94616 6.58689 8.1344 6.20541L10.8413 0.720529C11.3149 -0.240176 12.6846 -0.240176 13.1587 0.720529Z" fill="#CF2B5D"/>
<path fill-rule="evenodd" clip-rule="evenodd" d="M15.9 12.5611L15.8813 14.7174L14.0278 15.7949L12.1538 16.8722L8.40001 14.7174V10.4065L10.2741 9.32918L12.1463 8.25L14.0168 9.32918L12.1463 10.4065L10.2703 11.4838V13.6403L12.1407 14.7174L14.0203 13.6403L12.1762 12.5611L14.0372 11.4838L15.9 12.5611Z" fill="white"/>
</svg>
