<svg preserveAspectRatio="xMidYMin meet" viewBox="0 0 42 42" fill="none" xmlns="http://www.w3.org/2000/svg">
<g clip-path="url(#clip0_5631_24715)">
<path d="M23.0282 2.17791L27.7652 11.7764C28.0946 12.444 28.7316 12.9066 29.4684 13.0135L40.0612 14.5528C41.9168 14.8226 42.6571 17.1022 41.3149 18.4102L33.65 25.8815C33.1173 26.4011 32.8737 27.1501 32.9999 27.8834L34.809 38.4333C35.1262 40.281 33.1865 41.6898 31.5272 40.8181L22.0531 35.8375C21.3943 35.4914 20.6066 35.4914 19.9478 35.8375L10.4737 40.8181C8.81441 41.6907 6.87473 40.281 7.19188 38.4333L9.00102 27.8834C9.12717 27.1501 8.88362 26.4011 8.35095 25.8815L0.685998 18.4102C-0.65618 17.1013 0.0841205 14.8217 1.93969 14.5528L12.5326 13.0135C13.2694 12.9066 13.9063 12.444 14.2357 11.7764L18.9727 2.17791C19.8015 0.496686 22.1985 0.496686 23.0282 2.17791Z" fill="currentColor"/>
</g>
<defs>
<clipPath id="clip0_5631_24715">
<rect width="42" height="42" fill="white"/>
</clipPath>
</defs>
</svg>
