<svg preserveAspectRatio="xMidYMin meet" viewBox="0 0 16 16" fill="none" xmlns="http://www.w3.org/2000/svg">
<path fill-rule="evenodd" clip-rule="evenodd" d="M8 15C11.866 15 15 11.866 15 8C15 4.13401 11.866 1 8 1C4.13401 1 1 4.13401 1 8C1 11.866 4.13401 15 8 15ZM6.67993 11C6.78448 11 6.88509 10.9586 6.95887 10.8844L11.5537 6.28917C11.7849 6.05836 11.7849 5.68354 11.5537 5.45234L11.2748 5.1734C11.044 4.9422 10.6691 4.9422 10.4379 5.1734L6.67993 8.93142L5.28917 7.54065C5.05796 7.30945 4.68354 7.30945 4.45234 7.54065L4.1734 7.8196C3.9422 8.0504 3.9422 8.42522 4.1734 8.65642L6.40099 10.8844C6.47477 10.9586 6.57537 11 6.67993 11Z" fill="currentColor"/>
</svg>
