<svg preserveAspectRatio="xMidYMin meet" viewBox="0 0 16 16" fill="none" xmlns="http://www.w3.org/2000/svg">
<path d="M13.0296 5.56395H10.1465V3.51573C10.1465 2.53305 9.86361 1.81972 9.30356 1.39646C8.42349 0.727533 7.22624 1.10344 7.17481 1.12119C6.97193 1.18631 6.83192 1.38462 6.83192 1.60661V4.0781C6.83192 5.9073 4.7546 6.54367 4.66602 6.56735C4.66031 6.57031 4.6546 6.57031 4.65174 6.57327L4.41457 6.65022C4.14598 6.38679 3.78595 6.22696 3.39163 6.22696H2.49155C1.66863 6.224 1 6.91661 1 7.76905V13.085C1 13.9374 1.66863 14.63 2.49155 14.63H3.39163C3.77166 14.63 4.12026 14.482 4.38314 14.2364C4.76032 14.7011 5.32608 15 5.95756 15H11.7981C13.1525 15 14.0525 14.2304 14.2097 12.9429L14.9355 8.22191L14.9755 7.96736C14.9926 7.84897 15.004 7.72761 15.004 7.60626C15.0012 6.48151 14.1154 5.56395 13.0296 5.56395ZM3.9031 13.0879C3.9031 13.381 3.67451 13.6177 3.39163 13.6177H2.49155C2.20867 13.6177 1.98008 13.381 1.98008 13.0879V7.76905C1.98008 7.47602 2.20867 7.23923 2.49155 7.23923H3.39163C3.67451 7.23923 3.9031 7.47602 3.9031 7.76905V13.0879Z" fill="#17A9EF"/>
<path fill-rule="evenodd" clip-rule="evenodd" d="M14.0071 7.81056L13.2413 12.795C13.2413 12.8009 13.2384 12.8068 13.2384 12.8127C13.2041 13.1028 13.1013 13.9878 11.7983 13.9878H5.9578C5.36633 13.9878 4.88343 13.4876 4.88343 12.8749V7.76913C4.88343 7.70105 4.87771 7.63297 4.86914 7.5649L4.94058 7.54122C5.14916 7.47906 7.81225 6.63254 7.81225 4.07522V2.02404C8.09513 1.99444 8.46659 2.01516 8.72661 2.21643C9.01806 2.44138 9.16665 2.87648 9.16665 3.51581V6.07313C9.16665 6.35431 9.38667 6.58222 9.65812 6.58222H13.0298C13.5784 6.58222 14.0213 7.04396 14.0213 7.60929C14.0213 7.67441 14.0156 7.74249 14.0071 7.81056Z" fill="#17A9EF"/>
</svg>
