<svg preserveAspectRatio="xMidYMin meet" viewBox="0 0 16 16" fill="none" xmlns="http://www.w3.org/2000/svg">
<path d="M13.0296 5.56395H10.1465V3.51573C10.1465 2.53305 9.86361 1.81972 9.30356 1.39646C8.42349 0.727533 7.22624 1.10344 7.17481 1.12119C6.97193 1.18631 6.83192 1.38462 6.83192 1.60661V4.0781C6.83192 5.9073 4.7546 6.54367 4.66602 6.56735C4.66031 6.57031 4.65459 6.57031 4.65174 6.57327L4.41457 6.65022C4.14598 6.38679 3.78595 6.22696 3.39163 6.22696H2.49155C1.66863 6.224 1 6.91661 1 7.76905V13.085C1 13.9374 1.66863 14.63 2.49155 14.63H3.39163C3.77166 14.63 4.12026 14.482 4.38314 14.2364C4.76032 14.7011 5.32608 15 5.95756 15H11.7981C13.1525 15 14.0525 14.2304 14.2097 12.9429L14.9355 8.22191L14.9755 7.96736C14.9926 7.84897 15.004 7.72761 15.004 7.60626C15.0012 6.48151 14.1154 5.56395 13.0296 5.56395ZM3.9031 13.0879C3.9031 13.381 3.67451 13.6177 3.39163 13.6177H2.49155C2.20867 13.6177 1.98008 13.381 1.98008 13.0879V7.76905C1.98008 7.47602 2.20867 7.23923 2.49155 7.23923H3.39163C3.67451 7.23923 3.9031 7.47602 3.9031 7.76905V13.0879ZM14.0068 7.81049L13.241 12.7949C13.241 12.8008 13.2382 12.8067 13.2382 12.8127C13.2039 13.1027 13.101 13.9877 11.7981 13.9877H5.95756C5.36608 13.9877 4.88319 13.4875 4.88319 12.8748V7.76905C4.88319 7.70097 4.87747 7.6329 4.8689 7.56482L4.94033 7.54114C5.14892 7.47898 7.812 6.63246 7.812 4.07514V2.02395C8.09489 1.99436 8.46635 2.01507 8.72637 2.21634C9.01782 2.44129 9.16641 2.87639 9.16641 3.51573V6.07305C9.16641 6.35424 9.38642 6.58215 9.65788 6.58215H13.0296C13.5782 6.58215 14.0211 7.04388 14.0211 7.60922C14.0211 7.67434 14.0154 7.74241 14.0068 7.81049Z" fill="#3C3C3C"/>
</svg>
