<svg preserveAspectRatio="xMidYMin meet" viewBox="0 0 16 16" fill="none" xmlns="http://www.w3.org/2000/svg">
<path d="M7.99988 1C4.134 1 1 4.13409 1 7.99988C1 11.8657 4.134 15 7.99988 15C11.8658 15 15 11.8657 15 7.99988C15 4.13409 11.8658 1 7.99988 1ZM11.0261 9.33126H8.05845C8.04842 9.33126 8.03908 9.32883 8.02914 9.32846C8.0192 9.32893 8.00992 9.33126 7.99984 9.33126C7.73248 9.33126 7.51571 9.11449 7.51571 8.84713V3.905C7.51571 3.63764 7.73248 3.42087 7.99984 3.42087C8.26719 3.42087 8.48396 3.63764 8.48396 3.905V8.363H11.0259C11.2933 8.363 11.5101 8.57977 11.5101 8.84713C11.5101 9.11449 11.2935 9.33126 11.0261 9.33126Z" fill="currentColor"/>
</svg>
