<svg preserveAspectRatio="xMidYMin meet" viewBox="0 0 16 16" fill="none" xmlns="http://www.w3.org/2000/svg">
<path fill-rule="evenodd" clip-rule="evenodd" d="M8 15C11.866 15 15 11.866 15 8C15 4.13401 11.866 1 8 1C4.13401 1 1 4.13401 1 8C1 11.866 4.13401 15 8 15ZM7.31429 9.58286H8.70857L9 4H7.02286L7.31429 9.58286ZM7.07429 11.0857C7.02476 11.2076 7 11.3581 7 11.5371C7 11.7086 7.02476 11.8552 7.07429 11.9771C7.12762 12.099 7.2 12.2 7.29143 12.28C7.38286 12.36 7.48952 12.4171 7.61143 12.4514C7.73333 12.4895 7.86476 12.5086 8.00571 12.5086C8.13905 12.5086 8.26476 12.4895 8.38286 12.4514C8.50476 12.4171 8.61143 12.36 8.70286 12.28C8.79429 12.2 8.86667 12.099 8.92 11.9771C8.97333 11.8552 9 11.7086 9 11.5371C9 11.3581 8.97333 11.2076 8.92 11.0857C8.86667 10.96 8.79429 10.859 8.70286 10.7829C8.61143 10.7067 8.50476 10.6514 8.38286 10.6171C8.26476 10.5829 8.13905 10.5657 8.00571 10.5657C7.86476 10.5657 7.73333 10.5829 7.61143 10.6171C7.48952 10.6514 7.38286 10.7067 7.29143 10.7829C7.2 10.859 7.12762 10.96 7.07429 11.0857Z" fill="currentColor"/>
</svg>
